<svg width="133" height="53" viewBox="0 0 133 53" fill="none" xmlns="http://www.w3.org/2000/svg">
    <path fill-rule="evenodd" clip-rule="evenodd" d="M22.445 8.9761C22.8424 12.0652 23.1716 16.8222 21.97 21.0278C20.1543 27.3829 14.5127 30.8669 15.0751 39.9004C15.1816 41.6115 16.2642 45.2581 17.7644 46.2613C17.5729 44.3456 17.9005 41.1053 18.9661 38.4509C21.3848 32.426 26.5081 28.9144 27.3772 22.8302C28.1885 17.1511 26.1835 12.9862 22.445 8.9761Z" fill="#E95623"/>
    <path fill-rule="evenodd" clip-rule="evenodd" d="M22.445 8.9761C22.8424 12.0652 23.1716 16.8222 21.97 21.0278C20.1543 27.3829 14.5127 30.8669 15.0751 39.9004C15.1254 40.7091 15.3939 41.95 15.8213 43.1398C15.5529 40.1855 15.7192 37.4814 16.9709 34.3663C19.6811 27.6212 22.2978 26.5061 23.4434 20.7782C24.6449 14.7703 22.445 8.9761 22.445 8.9761Z" fill="#0069AF"/>
    <path fill-rule="evenodd" clip-rule="evenodd" d="M24.7349 47.7261C26.1065 43.8587 32.4441 39.0326 33.3855 32.443C34.029 27.9394 32.5613 23.3396 30.0692 18.9923C30.2898 21.7206 30.0357 24.7812 29.1256 27.3915C26.752 34.1984 21.3696 37.2494 20.3679 44.5401C19.8798 48.0912 22.6619 51.1619 24.3219 51.8061C24.2496 50.4811 24.2823 49.0033 24.7349 47.7261Z" fill="#E95623"/>
    <path fill-rule="evenodd" clip-rule="evenodd" d="M30.0941 18.9923C30.267 21.6318 29.9973 24.5461 29.1253 27.0468C26.7518 33.8536 21.3694 36.9047 20.3676 44.1955C19.9669 47.1112 21.3846 49.7447 23.2036 51.1262C21.1576 48.2656 21.06 45.2177 22.2316 42.0604C24.0087 37.2712 29.6347 32.2463 30.3813 27.8928C31.1279 23.5392 30.4737 20.8283 30.0941 18.9923Z" fill="#0069AF"/>
    <path fill-rule="evenodd" clip-rule="evenodd" d="M12.9709 0C14.1153 3.51559 13.7924 7.83069 11.7509 11.5026C8.21971 17.8536 0.553279 27.062 0.02984 35.9112C-0.358287 42.4743 3.07419 48.064 8.32119 50.9143C11.7384 52.7705 16.1368 53.4696 21.3759 52.5328C14.1638 50.3937 10.9403 40.9357 11.8639 35.0122C13.0881 27.1608 17.7443 24.1758 19.2878 15.5748C20.3355 9.73676 17.9837 2.62069 12.9709 0Z" fill="#0069AF"/>
    <path d="M69.1144 46.6536C69.1148 46.7345 69.091 46.8069 69.0418 46.8712C68.9963 46.9355 68.9093 46.987 68.7899 47.0304C68.6704 47.07 68.5096 47.1053 68.3029 47.1278C68.0961 47.1502 67.8398 47.1601 67.5376 47.1618C67.2317 47.1635 66.9753 47.1566 66.7692 47.1363C66.5622 47.1161 66.4001 47.0826 66.2804 47.0443C66.1604 47.0023 66.0729 46.9518 66.0195 46.8881C65.9652 46.8243 65.9397 46.7521 65.9392 46.6713L65.8712 33.6578L60.0173 33.6904L60.0854 46.7039C60.0858 46.7848 60.061 46.8572 60.0082 46.9216C59.9546 46.9858 59.8676 47.0374 59.7483 47.0808C59.6289 47.1205 59.4671 47.1556 59.2647 47.1781C59.0671 47.2005 58.8062 47.2104 58.4959 47.2121C58.19 47.2137 57.9337 47.2069 57.7266 47.1867C57.5205 47.1665 57.3586 47.1331 57.2387 47.0947C57.1189 47.0527 57.0312 47.0021 56.986 46.9384C56.9353 46.8747 56.9107 46.8024 56.9102 46.7215L56.8333 32.006C56.8315 31.6562 56.9164 31.395 57.0855 31.2232C57.2538 31.0525 57.4772 30.9658 57.7579 30.9643L68.1101 30.9066C68.4042 30.9049 68.6277 30.9892 68.7895 31.1581C68.9515 31.3279 69.0356 31.5883 69.0375 31.9381L69.1144 46.6536ZM85.6856 46.5613C85.686 46.6422 85.6612 46.7147 85.6122 46.779C85.5665 46.8433 85.4805 46.8949 85.3611 46.9382C85.2407 46.9777 85.0754 47.013 84.8695 47.0356C84.6627 47.0581 84.4064 47.0678 84.1006 47.0695C83.7858 47.0712 83.5258 47.0643 83.3232 47.0441C83.1245 47.024 82.9588 46.9905 82.8388 46.9522C82.7191 46.9102 82.6316 46.8596 82.5853 46.7958C82.5355 46.7321 82.5109 46.6599 82.5104 46.5792L82.4421 33.5136L79.0933 33.5322C78.8758 35.4452 78.6524 37.1142 78.4242 38.5437C78.2004 39.9704 77.9551 41.1959 77.6914 42.2125C77.4322 43.2331 77.1389 44.0707 76.824 44.7213C76.5089 45.3754 76.1437 45.8935 75.74 46.2752C75.3328 46.6572 74.8717 46.9204 74.3554 47.0635C73.8433 47.2074 73.2572 47.283 72.6033 47.2867C72.4792 47.2874 72.3757 47.2712 72.2846 47.2375C72.1981 47.2082 72.1276 47.1445 72.0731 47.051C72.0187 46.9614 71.9813 46.8335 71.9552 46.6676C71.9299 46.5015 71.9162 46.2882 71.9149 46.032C71.913 45.6739 71.9197 45.3843 71.9347 45.1624C71.9506 44.9442 71.9785 44.7732 72.0148 44.6542C72.0556 44.5297 72.109 44.4486 72.1755 44.4103C72.2372 44.3673 72.3154 44.3454 72.4062 44.3449C72.6545 44.3436 72.8979 44.2911 73.125 44.1832C73.3556 44.0788 73.5777 43.8734 73.791 43.5604C74.0044 43.2521 74.2089 42.8157 74.4047 42.2559C74.5998 41.6961 74.791 40.9618 74.9761 40.043C75.1611 39.1297 75.346 38.015 75.529 36.6999C75.7128 35.3857 75.8988 33.8237 76.0838 32.0139C76.131 31.5868 76.2247 31.2874 76.3678 31.1159C76.5116 30.9453 76.7262 30.8587 77.0078 30.857L84.6929 30.8143C84.9871 30.8126 85.2105 30.8969 85.3689 31.0658C85.5263 31.2356 85.6068 31.496 85.6086 31.8458L85.6856 46.5613ZM110.029 38.6239C110.036 39.9722 109.889 41.1758 109.589 42.2354C109.284 43.2951 108.826 44.1886 108.213 44.9176C107.597 45.646 106.835 46.2006 105.919 46.5852C105.004 46.9698 103.938 47.1633 102.714 47.17C101.602 47.1763 100.617 47.0287 99.7683 46.7261C98.9185 46.4191 98.1973 45.9674 97.6112 45.3564C97.0208 44.7489 96.5616 43.9887 96.2384 43.0772C95.9153 42.1658 95.7199 41.1136 95.6481 39.9159L93.241 39.9294L93.2754 46.5191C93.2759 46.5998 93.252 46.6725 93.1983 46.7367C93.1447 46.8011 93.0585 46.8527 92.9391 46.896C92.8189 46.9355 92.6535 46.9708 92.4557 46.9934C92.2535 47.0157 91.9926 47.0257 91.6788 47.0273C91.373 47.029 91.1165 47.0221 90.9096 47.0019C90.7025 46.9818 90.5368 46.9483 90.4171 46.91C90.2963 46.868 90.2097 46.8174 90.1554 46.7537C90.101 46.6899 90.0764 46.6177 90.076 46.537L89.9957 31.207C89.9954 31.1253 90.0193 31.0529 90.0729 30.9885C90.1265 30.9243 90.2126 30.8727 90.341 30.8293C90.465 30.7905 90.6258 30.7553 90.828 30.7328C91.0312 30.7103 91.2875 30.7005 91.5933 30.6989C91.9073 30.6972 92.1681 30.7041 92.3706 30.7242C92.5686 30.7446 92.7343 30.7733 92.855 30.8153C92.975 30.8574 93.0615 30.9078 93.1159 30.9717C93.1702 31.0317 93.1948 31.1038 93.1952 31.1892L93.2269 37.2417L95.6952 37.228C95.8022 36.1955 96.0283 35.2596 96.3757 34.4215C96.7221 33.5835 97.1943 32.8691 97.7822 32.2857C98.3746 31.6977 99.0873 31.2418 99.9293 30.9216C100.767 30.6005 101.729 30.4373 102.821 30.4312C103.962 30.4248 104.976 30.5864 105.866 30.9137C106.757 31.2418 107.508 31.7453 108.124 32.4194C108.739 33.0943 109.207 33.9493 109.53 34.9794C109.853 36.0106 110.022 37.2253 110.029 38.6239ZM106.681 38.8095C106.677 37.9688 106.606 37.197 106.47 36.4981C106.33 35.7999 106.108 35.199 105.803 34.6977C105.499 34.1917 105.091 33.8061 104.59 33.5267C104.088 33.2528 103.463 33.1153 102.719 33.1195C101.941 33.1237 101.306 33.2814 100.803 33.5867C100.305 33.892 99.9103 34.3035 99.6152 34.8128C99.3237 35.322 99.1199 35.9125 99.0082 36.5823C98.8913 37.2567 98.8373 37.9651 98.8412 38.7158C98.8442 39.2662 98.872 39.7912 98.9242 40.2856C98.9717 40.78 99.0614 41.2397 99.1832 41.666C99.3095 42.0876 99.469 42.4746 99.665 42.8234C99.8612 43.1722 100.102 43.4696 100.397 43.7065C100.687 43.948 101.032 44.1345 101.429 44.2641C101.827 44.3947 102.287 44.4597 102.803 44.4569C103.556 44.4527 104.179 44.3044 104.673 44.0075C105.172 43.7142 105.567 43.3111 105.866 42.8019C106.161 42.2925 106.373 41.6946 106.498 41.0109C106.622 40.3281 106.685 39.5937 106.681 38.8095ZM124.537 44.3229C124.538 44.5327 124.536 44.7117 124.524 44.8566C124.512 45.0015 124.492 45.1296 124.468 45.2318C124.448 45.3387 124.415 45.4288 124.374 45.5052C124.333 45.5788 124.272 45.6645 124.181 45.7586C124.095 45.853 123.921 45.9774 123.671 46.1281C123.415 46.2744 123.105 46.4218 122.738 46.5602C122.371 46.694 121.954 46.8115 121.483 46.9041C121.012 46.9959 120.5 47.046 119.95 47.049C118.879 47.0551 117.911 46.8896 117.045 46.5529C116.179 46.2172 115.44 45.7091 114.833 45.034C114.223 44.359 113.755 43.517 113.427 42.5C113.099 41.4865 112.932 40.3059 112.925 38.9576C112.918 37.5842 113.089 36.3637 113.439 35.2954C113.789 34.2263 114.28 33.328 114.913 32.5996C115.546 31.8704 116.308 31.3205 117.199 30.9406C118.086 30.5597 119.069 30.3668 120.144 30.3608C120.578 30.3584 120.996 30.3941 121.402 30.4689C121.807 30.539 122.18 30.6353 122.523 30.7568C122.867 30.8747 123.174 31.014 123.452 31.1702C123.725 31.3303 123.92 31.4656 124.029 31.5763C124.137 31.6908 124.212 31.7841 124.253 31.8562C124.295 31.9331 124.329 32.0265 124.35 32.1415C124.375 32.261 124.397 32.3974 124.41 32.555C124.423 32.7127 124.428 32.9049 124.429 33.1397C124.431 33.3865 124.424 33.6 124.408 33.7755C124.392 33.9501 124.364 34.0913 124.328 34.1982C124.287 34.3052 124.238 34.3862 124.184 34.4329C124.127 34.4852 124.06 34.5106 123.99 34.5109C123.871 34.5116 123.717 34.4401 123.53 34.2964C123.343 34.1517 123.102 33.9915 122.808 33.8141C122.514 33.6366 122.161 33.4762 121.752 33.3337C121.345 33.1903 120.862 33.1205 120.295 33.1237C119.675 33.1271 119.122 33.2629 118.635 33.5255C118.149 33.7928 117.737 34.1661 117.397 34.6545C117.056 35.1472 116.799 35.737 116.624 36.4295C116.45 37.1172 116.368 37.898 116.372 38.7639C116.377 39.7105 116.477 40.5332 116.67 41.2271C116.864 41.9175 117.135 42.4923 117.49 42.9376C117.839 43.3839 118.266 43.7184 118.764 43.9327C119.262 44.1518 119.82 44.26 120.44 44.2567C121.003 44.2535 121.49 44.182 121.903 44.0433C122.311 43.9046 122.661 43.7497 122.955 43.5856C123.252 43.4178 123.49 43.267 123.68 43.1332C123.869 43.0004 124.014 42.931 124.121 42.9303C124.2 42.93 124.266 42.9471 124.312 42.9804C124.361 43.0144 124.403 43.0783 124.437 43.1801C124.466 43.2783 124.492 43.4192 124.509 43.5982C124.526 43.7819 124.536 44.0203 124.537 44.3229Z" fill="#E95623"/>
    <path d="M59.7393 18.6155C59.7422 19.1731 59.6669 19.6772 59.5166 20.1313C59.3665 20.582 59.1577 20.9837 58.8911 21.3315C58.6208 21.6796 58.3011 21.9785 57.9308 22.2329C57.5567 22.4862 57.1449 22.6905 56.6959 22.8582C56.247 23.0213 55.7647 23.1441 55.2533 23.2205C54.742 23.3023 54.1729 23.3422 53.5453 23.3456L49.3902 23.368C49.1262 23.3695 48.9023 23.2926 48.72 23.1365C48.5378 22.9803 48.4458 22.7248 48.4438 22.3703L48.3701 8.7277C48.3684 8.37218 48.4576 8.11587 48.6382 7.9586C48.8187 7.80052 49.0418 7.72115 49.3058 7.71969L53.2256 7.69855C54.1837 7.69351 54.9929 7.77174 55.6583 7.92884C56.3236 8.08595 56.8815 8.32615 57.3376 8.64963C57.7973 8.97408 58.1459 9.38425 58.3884 9.88223C58.6345 10.3801 58.757 10.9657 58.7607 11.6426C58.7626 12.0223 58.7153 12.3774 58.6218 12.7119C58.5285 13.0473 58.3865 13.3533 58.2058 13.6262C58.0223 13.9039 57.7964 14.1447 57.5247 14.3563C57.2581 14.5687 56.9529 14.7392 56.6071 14.8694C57.0493 14.9488 57.463 15.0875 57.8394 15.2876C58.2157 15.4874 58.5431 15.7462 58.8214 16.0625C59.104 16.3788 59.3252 16.7529 59.4882 17.1767C59.6511 17.6049 59.7363 18.0831 59.7393 18.6155ZM55.5934 12.0432C55.5918 11.7298 55.5409 11.4499 55.4443 11.1981C55.3478 10.9509 55.2031 10.7416 55.0082 10.5773C54.8134 10.4132 54.5685 10.2906 54.2752 10.2015C53.9822 10.1169 53.5896 10.0733 53.0984 10.0759L51.4976 10.0846L51.5196 14.1454L53.29 14.1359C53.748 14.1333 54.1149 14.0776 54.3863 13.9647C54.6586 13.8564 54.8841 13.7061 55.0653 13.5158C55.2457 13.3244 55.3764 13.1011 55.4657 12.8492C55.5514 12.5929 55.595 12.3286 55.5934 12.0432ZM56.4466 18.7491C56.4446 18.3864 56.381 18.0598 56.26 17.7723C56.139 17.4883 55.96 17.2496 55.7237 17.0569C55.4919 16.8643 55.194 16.7168 54.8297 16.6119C54.4665 16.5106 53.9957 16.4593 53.4139 16.4624L51.5321 16.4727L51.5562 20.9295L53.8501 20.917C54.2918 20.9147 54.6633 20.8677 54.9681 20.7709C55.2683 20.6787 55.5279 20.5372 55.7495 20.3538C55.9676 20.1711 56.1397 19.9475 56.2657 19.6748C56.3882 19.4058 56.4485 19.0956 56.4466 18.7491Z" fill="#E95623"/>
    <path d="M77.3183 15.211C77.3253 16.5066 77.1707 17.6674 76.8539 18.6927C76.5381 19.7179 76.0644 20.5914 75.428 21.3043C74.7961 22.0215 74.0117 22.5707 73.0764 22.9509C72.1375 23.3323 71.0529 23.5231 69.8193 23.5298C68.6019 23.5363 67.5407 23.3813 66.635 23.0684C65.7255 22.7555 64.9678 22.2765 64.3573 21.6243C63.7513 20.9748 63.2935 20.1486 62.9864 19.1429C62.6802 18.1379 62.5211 16.9457 62.5136 15.5675C62.5068 14.3051 62.6615 13.1649 62.9773 12.1522C63.2943 11.1395 63.7682 10.2786 64.4036 9.56499C65.0355 8.85233 65.8208 8.30296 66.7561 7.92272C67.694 7.53776 68.7831 7.34162 70.0248 7.33495C71.2099 7.32844 72.254 7.48003 73.1642 7.78839C74.0691 8.09788 74.8313 8.57585 75.4418 9.22883C76.0559 9.87742 76.5181 10.6964 76.8333 11.6895C77.1485 12.6863 77.311 13.8581 77.3183 15.211ZM73.9764 15.3898C73.9721 14.5691 73.9024 13.8226 73.7706 13.1508C73.6393 12.4781 73.4172 11.9019 73.1049 11.425C72.7934 10.9482 72.3784 10.5787 71.8607 10.3175C71.3441 10.0599 70.6995 9.93141 69.9273 9.93564C69.148 9.93987 68.4962 10.0924 67.9778 10.3879C67.4561 10.6834 67.0326 11.0816 66.7139 11.5745C66.3941 12.0673 66.1702 12.6422 66.0417 13.2992C65.9132 13.9599 65.8514 14.6543 65.8555 15.3888C65.86 16.2426 65.9298 17.0099 66.0618 17.6905C66.1929 18.3705 66.4151 18.9511 66.723 19.4361C67.031 19.9175 67.4415 20.2825 67.959 20.5355C68.4757 20.785 69.1247 20.9091 69.9039 20.9049C70.6842 20.9006 71.3353 20.7526 71.8536 20.4571C72.3763 20.1652 72.7998 19.7669 73.1184 19.266C73.4381 18.7651 73.6611 18.181 73.7904 17.516C73.9189 16.8509 73.9805 16.1413 73.9764 15.3898Z" fill="#E95623"/>
    <path d="M93.0387 22.7267C93.039 22.8048 93.0143 22.875 92.9653 22.9372C92.9198 22.9995 92.8339 23.0492 92.7147 23.0912C92.5945 23.1296 92.4296 23.1637 92.224 23.1855C92.0177 23.2071 91.7618 23.2167 91.4566 23.2184C91.1424 23.22 90.8828 23.2133 90.6806 23.1938C90.4822 23.1741 90.3168 23.1419 90.1971 23.1048C90.0776 23.0642 89.9901 23.0152 89.9441 22.9536C89.8943 22.8918 89.8697 22.822 89.8693 22.7438L89.8011 10.1034L86.4585 10.1214C86.2414 11.972 86.0184 13.5867 85.7905 14.9697C85.5672 16.3501 85.3223 17.5357 85.0592 18.5194C84.8004 19.5066 84.5077 20.3171 84.1932 20.9464C83.8788 21.5793 83.5143 22.0806 83.1113 22.4499C82.7049 22.8193 82.2446 23.0741 81.7292 23.2125C81.2181 23.3517 80.6331 23.4249 79.9804 23.4283C79.8565 23.4291 79.7532 23.4135 79.6623 23.3807C79.576 23.3525 79.5055 23.2909 79.4512 23.2005C79.3969 23.1136 79.3595 22.99 79.3335 22.8295C79.3083 22.6688 79.2946 22.4624 79.2933 22.2146C79.2913 21.868 79.298 21.588 79.313 21.3733C79.3289 21.1622 79.3567 20.9968 79.393 20.8816C79.4337 20.7611 79.487 20.6827 79.5534 20.6455C79.615 20.6039 79.6931 20.5829 79.7836 20.5824C80.0315 20.5811 80.2745 20.5303 80.5012 20.4259C80.7313 20.3249 80.953 20.1262 81.1659 19.8234C81.3789 19.5251 81.583 19.1029 81.7785 18.5613C81.9732 18.0197 82.1641 17.3094 82.3489 16.4204C82.5335 15.5368 82.7181 14.4584 82.9007 13.1861C83.0842 11.9146 83.2699 10.4034 83.4545 8.6525C83.5015 8.23925 83.5951 7.9496 83.7379 7.78371C83.8815 7.61864 84.0957 7.53487 84.3768 7.53325L92.0477 7.49194C92.3415 7.49031 92.5644 7.57163 92.7225 7.73508C92.8796 7.8995 92.96 8.15143 92.9618 8.48987L93.0387 22.7267Z" fill="#E95623"/>
    <path d="M107.159 8.72717C107.16 8.9669 107.153 9.16905 107.133 9.33429C107.114 9.49969 107.081 9.63175 107.045 9.73079C107.004 9.83423 106.954 9.90448 106.893 9.95066C106.832 9.99588 106.761 10.0169 106.683 10.0174L101.495 10.0453L101.563 22.6859C101.564 22.764 101.54 22.8341 101.486 22.8964C101.433 22.9587 101.347 23.0084 101.228 23.0504C101.108 23.0888 100.943 23.1229 100.745 23.1446C100.543 23.1664 100.283 23.1758 99.9698 23.1776C99.6645 23.1792 99.4085 23.1725 99.202 23.153C98.9953 23.1333 98.8299 23.1011 98.7103 23.064C98.5898 23.0234 98.5033 22.9744 98.4491 22.9128C98.3948 22.8512 98.3703 22.7812 98.3698 22.7032L98.293 8.46631C98.2912 8.1277 98.3759 7.87496 98.5483 7.70891C98.7207 7.54368 98.9474 7.45976 99.2321 7.45829L106.669 7.41813C106.83 7.41731 106.95 7.51538 107.034 7.71689C107.113 7.91855 107.156 8.25326 107.159 8.72717Z" fill="#0069AF"/>
    <path d="M120.909 21.8057C121.006 22.0942 121.069 22.3246 121.095 22.4933C121.12 22.6629 121.089 22.7906 121.002 22.8781C120.912 22.9612 120.755 23.0158 120.528 23.0378C120.305 23.0596 119.992 23.0693 119.6 23.0715C119.188 23.0737 118.865 23.071 118.638 23.0596C118.407 23.0492 118.234 23.0251 118.11 22.9888C117.99 22.9518 117.907 22.903 117.857 22.8376C117.807 22.7759 117.765 22.6891 117.736 22.586L116.692 19.4473L110.79 19.4792L109.821 22.5424C109.788 22.6575 109.747 22.753 109.694 22.8278C109.645 22.9062 109.558 22.9641 109.444 23.0105C109.328 23.057 109.163 23.0866 108.949 23.1038C108.734 23.122 108.454 23.1316 108.106 23.1336C107.736 23.1355 107.446 23.1245 107.236 23.1006C107.025 23.0775 106.88 23.0199 106.802 22.9296C106.718 22.8358 106.689 22.7039 106.713 22.5341C106.737 22.3651 106.797 22.1413 106.891 21.8563L111.636 7.94434C111.681 7.80756 111.738 7.696 111.804 7.61305C111.865 7.52555 111.968 7.4631 112.108 7.4174C112.252 7.37088 112.446 7.34113 112.697 7.32714C112.945 7.31413 113.275 7.30794 113.687 7.30567C114.162 7.30306 114.542 7.30551 114.822 7.31575C115.107 7.32665 115.326 7.35429 115.484 7.39918C115.64 7.44326 115.752 7.50912 115.823 7.5958C115.889 7.68607 115.952 7.80528 115.998 7.95767L120.909 21.8057ZM113.667 10.3557L113.655 10.3559L111.511 17.0241L115.903 17.0005L113.667 10.3557Z" fill="#0069AF"/>
    <path d="M133 18.383C133.004 19.1713 132.86 19.8698 132.566 20.4693C132.272 21.0734 131.85 21.5794 131.299 21.9863C130.748 22.3978 130.089 22.7076 129.322 22.9136C128.557 23.1199 127.703 23.2233 126.77 23.2283C126.254 23.2311 125.784 23.1968 125.35 23.1291C124.92 23.0569 124.544 22.9683 124.226 22.8622C123.907 22.7526 123.651 22.6471 123.457 22.545C123.267 22.4427 123.125 22.3573 123.047 22.2867C122.964 22.2172 122.906 22.1475 122.864 22.0777C122.823 22.0034 122.789 21.9003 122.767 21.7684C122.742 21.6366 122.721 21.4678 122.707 21.266C122.694 21.0676 122.688 20.8161 122.686 20.519C122.684 20.1806 122.713 19.9532 122.773 19.8335C122.834 19.7174 122.926 19.6593 123.045 19.6587C123.14 19.6582 123.276 19.7068 123.454 19.8047C123.632 19.9025 123.86 20.0171 124.133 20.144C124.406 20.2655 124.737 20.3796 125.125 20.4808C125.509 20.582 125.964 20.6333 126.488 20.6304C126.921 20.6281 127.317 20.5722 127.672 20.467C128.021 20.3619 128.322 20.2121 128.564 20.0168C128.811 19.8216 128.999 19.5889 129.134 19.3197C129.269 19.0514 129.338 18.7494 129.336 18.4235C129.334 18.0608 129.27 17.7342 129.145 17.4467C129.016 17.1583 128.82 16.9116 128.555 16.7155C128.286 16.514 127.95 16.3632 127.541 16.2541C127.136 16.1493 126.645 16.0981 126.076 16.1012L124.42 16.1102C124.296 16.1108 124.202 16.0952 124.127 16.0623C124.057 16.0295 123.999 15.9724 123.953 15.881C123.907 15.7951 123.877 15.6714 123.864 15.5107C123.851 15.3536 123.846 15.1472 123.844 14.8876C123.843 14.6525 123.85 14.462 123.867 14.3093C123.882 14.1611 123.91 14.0416 123.955 13.9543C124 13.8634 124.053 13.8011 124.123 13.7638C124.189 13.7258 124.275 13.7092 124.371 13.7087L126.05 13.6996C126.545 13.697 126.979 13.6453 127.358 13.548C127.737 13.4508 128.049 13.3045 128.304 13.1138C128.555 12.9228 128.747 12.6947 128.882 12.4255C129.013 12.1563 129.078 11.8462 129.076 11.4996C129.074 11.2114 129.027 10.9468 128.931 10.7086C128.839 10.4658 128.693 10.2636 128.498 10.1003C128.303 9.93622 128.059 9.80921 127.762 9.72008C127.46 9.62657 127.105 9.58348 126.696 9.58575C126.214 9.58835 125.776 9.64462 125.389 9.74985C125.006 9.85442 124.668 9.96843 124.384 10.0894C124.096 10.2067 123.857 10.323 123.66 10.4318C123.462 10.5396 123.314 10.5944 123.219 10.5949C123.161 10.5952 123.115 10.5793 123.074 10.5463C123.033 10.5132 122.995 10.456 122.966 10.3735C122.933 10.2867 122.907 10.1719 122.894 10.0273C122.881 9.88288 122.875 9.6926 122.874 9.45726C122.873 9.29658 122.877 9.14842 122.884 9.01197C122.892 8.87536 122.907 8.75144 122.932 8.63645C122.956 8.52489 122.984 8.42504 123.025 8.33868C123.066 8.2559 123.128 8.17294 123.21 8.08983C123.296 8.01128 123.468 7.90704 123.728 7.77725C123.991 7.64845 124.308 7.53087 124.688 7.4219C125.067 7.31213 125.491 7.21925 125.969 7.14655C126.444 7.07402 126.946 7.03352 127.479 7.03076C128.317 7.0262 129.048 7.10932 129.672 7.28382C130.3 7.45719 130.822 7.71025 131.24 8.04203C131.663 8.37461 131.978 8.7851 132.192 9.27154C132.405 9.757 132.511 10.314 132.514 10.9407C132.517 11.4398 132.45 11.8945 132.315 12.3082C132.181 12.7174 131.989 13.0813 131.735 13.396C131.485 13.7116 131.181 13.9772 130.831 14.1891C130.486 14.4056 130.095 14.5648 129.67 14.6624L129.67 14.6866C130.162 14.7422 130.612 14.8719 131.019 15.0843C131.428 15.2967 131.776 15.5668 132.066 15.8956C132.362 16.2245 132.586 16.5985 132.749 17.0224C132.912 17.4426 132.997 17.8964 133 18.383Z" fill="#0069AF"/>
</svg>
